<?xml version="1.0" encoding="UTF-8" standalone="no"?>
<!DOCTYPE svg PUBLIC "-//W3C//DTD SVG 1.1//EN"
 "http://www.w3.org/Graphics/SVG/1.1/DTD/svg11.dtd">
<!-- Generated by graphviz version 2.43.0 (0)
 -->
<!-- Title: fractal_ifs Pages: 1 -->
<svg width="409pt" height="676pt"
 viewBox="0.00 0.00 408.82 676.00" xmlns="http://www.w3.org/2000/svg" xmlns:xlink="http://www.w3.org/1999/xlink">
<g id="graph0" class="graph" transform="scale(1 1) rotate(0) translate(4 672)">
<title>fractal_ifs</title>
<polygon fill="white" stroke="transparent" points="-4,4 -4,-672 404.82,-672 404.82,4 -4,4"/>
<!-- start -->
<g id="node1" class="node">
<title>start</title>
<ellipse fill="#d1fae5" stroke="#059669" stroke-width="1.6" cx="139" cy="-650" rx="43.18" ry="18"/>
<text text-anchor="middle" x="139" y="-646.9" font-family="Helvetica,sans-Serif" font-size="12.00" fill="#065f46">Boshlash</text>
</g>
<!-- in -->
<g id="node3" class="node">
<title>in</title>
<polygon fill="#ede9fe" stroke="#7c3aed" stroke-width="1.6" points="252.95,-599 71.68,-599 25.05,-563 206.32,-563 252.95,-599"/>
<text text-anchor="middle" x="139" y="-577.9" font-family="Helvetica,sans-Serif" font-size="12.00" fill="#5b21b6">Kirish: IFS {Tₖ, pₖ}</text>
</g>
<!-- start&#45;&gt;in -->
<g id="edge1" class="edge">
<title>start&#45;&gt;in</title>
<path fill="none" stroke="#64748b" stroke-width="1.4" d="M139,-631.87C139,-631.87 139,-607.25 139,-607.25"/>
<polygon fill="#64748b" stroke="#64748b" stroke-width="1.4" points="141.8,-607.25 139,-599.25 136.2,-607.25 141.8,-607.25"/>
</g>
<!-- end -->
<g id="node2" class="node">
<title>end</title>
<ellipse fill="#d1fae5" stroke="#059669" stroke-width="1.6" cx="288" cy="-87" rx="33.72" ry="18"/>
<text text-anchor="middle" x="288" y="-83.9" font-family="Helvetica,sans-Serif" font-size="12.00" fill="#065f46">Tugadi</text>
</g>
<!-- init -->
<g id="node5" class="node">
<title>init</title>
<path fill="#dbeafe" stroke="#2563eb" stroke-width="1.6" d="M194,-530C194,-530 84,-530 84,-530 78,-530 72,-524 72,-518 72,-518 72,-506 72,-506 72,-500 78,-494 84,-494 84,-494 194,-494 194,-494 200,-494 206,-500 206,-506 206,-506 206,-518 206,-518 206,-524 200,-530 194,-530"/>
<text text-anchor="middle" x="139" y="-508.9" font-family="Helvetica,sans-Serif" font-size="12.00" fill="#1e3a8a">P = (0.5, 0.5); &#160;i = 0</text>
</g>
<!-- in&#45;&gt;init -->
<g id="edge2" class="edge">
<title>in&#45;&gt;init</title>
<path fill="none" stroke="#64748b" stroke-width="1.4" d="M139,-562.87C139,-562.87 139,-538.25 139,-538.25"/>
<polygon fill="#64748b" stroke="#64748b" stroke-width="1.4" points="141.8,-538.25 139,-530.25 136.2,-538.25 141.8,-538.25"/>
</g>
<!-- out -->
<g id="node4" class="node">
<title>out</title>
<polygon fill="#ede9fe" stroke="#7c3aed" stroke-width="1.6" points="400.64,-199.5 221.45,-199.5 175.36,-163.5 354.55,-163.5 400.64,-199.5"/>
<text text-anchor="middle" x="288" y="-178.4" font-family="Helvetica,sans-Serif" font-size="12.00" fill="#5b21b6">Chiqish: 3D&#45;model</text>
</g>
<!-- out&#45;&gt;end -->
<g id="edge14" class="edge">
<title>out&#45;&gt;end</title>
<path fill="none" stroke="#64748b" stroke-width="1.4" d="M288,-163.28C288,-163.28 288,-113.16 288,-113.16"/>
<polygon fill="#64748b" stroke="#64748b" stroke-width="1.4" points="290.8,-113.16 288,-105.16 285.2,-113.16 290.8,-113.16"/>
</g>
<!-- cN -->
<g id="node12" class="node">
<title>cN</title>
<polygon fill="#fef3c7" stroke="#d97706" stroke-width="1.6" points="139,-461 97.32,-428.5 139,-396 180.68,-428.5 139,-461"/>
<text text-anchor="middle" x="139" y="-425.4" font-family="Helvetica,sans-Serif" font-size="12.00" fill="#92400e">i &lt; N ?</text>
</g>
<!-- init&#45;&gt;cN -->
<g id="edge3" class="edge">
<title>init&#45;&gt;cN</title>
<path fill="none" stroke="#64748b" stroke-width="1.4" d="M139,-493.88C139,-493.88 139,-469.06 139,-469.06"/>
<polygon fill="#64748b" stroke="#64748b" stroke-width="1.4" points="141.8,-469.06 139,-461.06 136.2,-469.06 141.8,-469.06"/>
</g>
<!-- pick -->
<g id="node6" class="node">
<title>pick</title>
<path fill="#dbeafe" stroke="#2563eb" stroke-width="1.6" d="M134,-352C134,-352 12,-352 12,-352 6,-352 0,-346 0,-340 0,-340 0,-328 0,-328 0,-322 6,-316 12,-316 12,-316 134,-316 134,-316 140,-316 146,-322 146,-328 146,-328 146,-340 146,-340 146,-346 140,-352 134,-352"/>
<text text-anchor="middle" x="73" y="-330.9" font-family="Helvetica,sans-Serif" font-size="12.00" fill="#1e3a8a">pₖ bo&#39;yicha Tₖ tanlash</text>
</g>
<!-- apply -->
<g id="node7" class="node">
<title>apply</title>
<path fill="#dbeafe" stroke="#2563eb" stroke-width="1.6" d="M108,-283C108,-283 36,-283 36,-283 30,-283 24,-277 24,-271 24,-271 24,-259 24,-259 24,-253 30,-247 36,-247 36,-247 108,-247 108,-247 114,-247 120,-253 120,-259 120,-259 120,-271 120,-271 120,-277 114,-283 108,-283"/>
<text text-anchor="middle" x="72" y="-261.9" font-family="Helvetica,sans-Serif" font-size="12.00" fill="#1e3a8a">P = Aₖ·P + bₖ</text>
</g>
<!-- pick&#45;&gt;apply -->
<g id="edge5" class="edge">
<title>pick&#45;&gt;apply</title>
<path fill="none" stroke="#64748b" stroke-width="1.4" d="M72,-315.87C72,-315.87 72,-291.25 72,-291.25"/>
<polygon fill="#64748b" stroke="#64748b" stroke-width="1.4" points="74.8,-291.25 72,-283.25 69.2,-291.25 74.8,-291.25"/>
</g>
<!-- cW -->
<g id="node13" class="node">
<title>cW</title>
<polygon fill="#fef3c7" stroke="#d97706" stroke-width="1.6" points="72,-214 1.04,-181.5 72,-149 142.96,-181.5 72,-214"/>
<text text-anchor="middle" x="72" y="-178.4" font-family="Helvetica,sans-Serif" font-size="12.00" fill="#92400e">i &gt; warmup ?</text>
</g>
<!-- apply&#45;&gt;cW -->
<g id="edge6" class="edge">
<title>apply&#45;&gt;cW</title>
<path fill="none" stroke="#64748b" stroke-width="1.4" d="M72,-246.88C72,-246.88 72,-222.06 72,-222.06"/>
<polygon fill="#64748b" stroke="#64748b" stroke-width="1.4" points="74.8,-222.06 72,-214.06 69.2,-222.06 74.8,-222.06"/>
</g>
<!-- plot -->
<g id="node8" class="node">
<title>plot</title>
<path fill="#dbeafe" stroke="#2563eb" stroke-width="1.6" d="M121.5,-105C121.5,-105 16.5,-105 16.5,-105 10.5,-105 4.5,-99 4.5,-93 4.5,-93 4.5,-81 4.5,-81 4.5,-75 10.5,-69 16.5,-69 16.5,-69 121.5,-69 121.5,-69 127.5,-69 133.5,-75 133.5,-81 133.5,-81 133.5,-93 133.5,-93 133.5,-99 127.5,-105 121.5,-105"/>
<text text-anchor="middle" x="69" y="-83.9" font-family="Helvetica,sans-Serif" font-size="12.00" fill="#1e3a8a">P nuqtani belgilash</text>
</g>
<!-- iinc -->
<g id="node9" class="node">
<title>iinc</title>
<path fill="#dbeafe" stroke="#2563eb" stroke-width="1.6" d="M185.5,-36C185.5,-36 144.5,-36 144.5,-36 138.5,-36 132.5,-30 132.5,-24 132.5,-24 132.5,-12 132.5,-12 132.5,-6 138.5,0 144.5,0 144.5,0 185.5,0 185.5,0 191.5,0 197.5,-6 197.5,-12 197.5,-12 197.5,-24 197.5,-24 197.5,-30 191.5,-36 185.5,-36"/>
<text text-anchor="middle" x="165" y="-14.9" font-family="Helvetica,sans-Serif" font-size="12.00" fill="#1e3a8a">i = i + 1</text>
</g>
<!-- plot&#45;&gt;iinc -->
<g id="edge8" class="edge">
<title>plot&#45;&gt;iinc</title>
<path fill="none" stroke="#64748b" stroke-width="1.4" d="M133.75,-87C135.6,-87 136.66,-87 136.66,-87 136.66,-87 136.66,-44.13 136.66,-44.13"/>
<polygon fill="#64748b" stroke="#64748b" stroke-width="1.4" points="139.46,-44.13 136.66,-36.13 133.86,-44.13 139.46,-44.13"/>
</g>
<!-- iinc&#45;&gt;cN -->
<g id="edge10" class="edge">
<title>iinc&#45;&gt;cN</title>
<path fill="none" stroke="#64748b" stroke-width="1.4" d="M155.73,-36.17C155.73,-36.17 155.73,-400.65 155.73,-400.65"/>
<polygon fill="#64748b" stroke="#64748b" stroke-width="1.4" points="152.93,-400.65 155.73,-408.65 158.53,-400.65 152.93,-400.65"/>
</g>
<!-- rast -->
<g id="node10" class="node">
<title>rast</title>
<path fill="#dbeafe" stroke="#2563eb" stroke-width="1.6" d="M350.5,-352C350.5,-352 201.5,-352 201.5,-352 195.5,-352 189.5,-346 189.5,-340 189.5,-340 189.5,-328 189.5,-328 189.5,-322 195.5,-316 201.5,-316 201.5,-316 350.5,-316 350.5,-316 356.5,-316 362.5,-322 362.5,-328 362.5,-328 362.5,-340 362.5,-340 362.5,-346 356.5,-352 350.5,-352"/>
<text text-anchor="middle" x="276" y="-330.9" font-family="Helvetica,sans-Serif" font-size="12.00" fill="#1e3a8a">rasterizatsiya → vokssellar</text>
</g>
<!-- mc -->
<g id="node11" class="node">
<title>mc</title>
<path fill="#dbeafe" stroke="#2563eb" stroke-width="1.6" d="M346,-283C346,-283 224,-283 224,-283 218,-283 212,-277 212,-271 212,-271 212,-259 212,-259 212,-253 218,-247 224,-247 224,-247 346,-247 346,-247 352,-247 358,-253 358,-259 358,-259 358,-271 358,-271 358,-277 352,-283 346,-283"/>
<text text-anchor="middle" x="285" y="-261.9" font-family="Helvetica,sans-Serif" font-size="12.00" fill="#1e3a8a">marching cubes → 3D</text>
</g>
<!-- rast&#45;&gt;mc -->
<g id="edge12" class="edge">
<title>rast&#45;&gt;mc</title>
<path fill="none" stroke="#64748b" stroke-width="1.4" d="M285,-315.87C285,-315.87 285,-291.25 285,-291.25"/>
<polygon fill="#64748b" stroke="#64748b" stroke-width="1.4" points="287.8,-291.25 285,-283.25 282.2,-291.25 287.8,-291.25"/>
</g>
<!-- mc&#45;&gt;out -->
<g id="edge13" class="edge">
<title>mc&#45;&gt;out</title>
<path fill="none" stroke="#64748b" stroke-width="1.4" d="M285,-246.88C285,-246.88 285,-207.58 285,-207.58"/>
<polygon fill="#64748b" stroke="#64748b" stroke-width="1.4" points="287.8,-207.58 285,-199.58 282.2,-207.58 287.8,-207.58"/>
</g>
<!-- cN&#45;&gt;pick -->
<g id="edge4" class="edge">
<title>cN&#45;&gt;pick</title>
<path fill="none" stroke="#64748b" stroke-width="1.4" d="M121.58,-409.38C121.58,-409.38 121.58,-360.13 121.58,-360.13"/>
<polygon fill="#64748b" stroke="#64748b" stroke-width="1.4" points="124.38,-360.13 121.58,-352.13 118.78,-360.13 124.38,-360.13"/>
<text text-anchor="middle" x="121" y="-371.2" font-family="Helvetica,sans-Serif" font-size="11.00" fill="#059669">ha</text>
</g>
<!-- cN&#45;&gt;rast -->
<g id="edge11" class="edge">
<title>cN&#45;&gt;rast</title>
<path fill="none" stroke="#64748b" stroke-width="1.4" d="M165.45,-416.53C165.45,-391.1 165.45,-334 165.45,-334 165.45,-334 181.44,-334 181.44,-334"/>
<polygon fill="#64748b" stroke="#64748b" stroke-width="1.4" points="181.44,-336.8 189.44,-334 181.44,-331.2 181.44,-336.8"/>
<text text-anchor="middle" x="247" y="-371.2" font-family="Helvetica,sans-Serif" font-size="11.00" fill="#dc2626">yo&#39;q</text>
</g>
<!-- cW&#45;&gt;plot -->
<g id="edge7" class="edge">
<title>cW&#45;&gt;plot</title>
<path fill="none" stroke="#64748b" stroke-width="1.4" d="M69,-150.3C69,-150.3 69,-113.21 69,-113.21"/>
<polygon fill="#64748b" stroke="#64748b" stroke-width="1.4" points="71.8,-113.21 69,-105.21 66.2,-113.21 71.8,-113.21"/>
<text text-anchor="middle" x="77" y="-124.2" font-family="Helvetica,sans-Serif" font-size="11.00" fill="#059669">ha</text>
</g>
<!-- cW&#45;&gt;iinc -->
<g id="edge9" class="edge">
<title>cW&#45;&gt;iinc</title>
<path fill="none" stroke="#64748b" stroke-width="1.4" d="M139.82,-179.66C139.82,-179.66 139.82,-44.1 139.82,-44.1"/>
<polygon fill="#64748b" stroke="#64748b" stroke-width="1.4" points="142.62,-44.1 139.82,-36.1 137.02,-44.1 142.62,-44.1"/>
<text text-anchor="middle" x="210" y="-84.2" font-family="Helvetica,sans-Serif" font-size="11.00" fill="#dc2626">yo&#39;q</text>
</g>
</g>
</svg>
